<svg class="main-svg" xmlns="http://www.w3.org/2000/svg" xmlns:xlink="http://www.w3.org/1999/xlink" width="800" height="600" style="" viewBox="0 0 800 600"><rect x="0" y="0" width="800" height="600" style="fill: rgb(255, 255, 255); fill-opacity: 1;"/><defs id="defs-38ed76"><g class="clips"><clipPath id="clip38ed76xyplot" class="plotclip"><rect width="379.9999999999998" height="420"/></clipPath><clipPath class="axesclip" id="clip38ed76x"><rect x="165.50000000000009" y="0" width="379.9999999999998" height="600"/></clipPath><clipPath class="axesclip" id="clip38ed76y"><rect x="0" y="100" width="800" height="420"/></clipPath><clipPath class="axesclip" id="clip38ed76xy"><rect x="165.50000000000009" y="100" width="379.9999999999998" height="420"/></clipPath></g><g class="gradients"/><g class="patterns"/></defs><g class="bglayer"><rect class="bg" x="165.50000000000009" y="100" width="379.9999999999998" height="420" style="fill: rgb(229, 236, 246); fill-opacity: 1; stroke-width: 0;"/></g><g class="layer-below"><g class="imagelayer"/><g class="shapelayer"/></g><g class="cartesianlayer"><g class="subplot xy"><g class="layer-subplot"><g class="shapelayer"/><g class="imagelayer"/></g><g class="gridlayer"><g class="x"><path class="xgrid crisp" transform="translate(242.10000000000008,0)" d="M0,100v420" style="stroke: rgb(255, 255, 255); stroke-opacity: 1; stroke-width: 1px;"/><path class="xgrid crisp" transform="translate(317.70000000000005,0)" d="M0,100v420" style="stroke: rgb(255, 255, 255); stroke-opacity: 1; stroke-width: 1px;"/><path class="xgrid crisp" transform="translate(393.30000000000007,0)" d="M0,100v420" style="stroke: rgb(255, 255, 255); stroke-opacity: 1; stroke-width: 1px;"/><path class="xgrid crisp" transform="translate(468.9000000000001,0)" d="M0,100v420" style="stroke: rgb(255, 255, 255); stroke-opacity: 1; stroke-width: 1px;"/></g><g class="y"><path class="ygrid crisp" transform="translate(0,423.4)" d="M165.50000000000009,0h379.9999999999998" style="stroke: rgb(255, 255, 255); stroke-opacity: 1; stroke-width: 1px;"/><path class="ygrid crisp" transform="translate(0,347.8)" d="M165.50000000000009,0h379.9999999999998" style="stroke: rgb(255, 255, 255); stroke-opacity: 1; stroke-width: 1px;"/><path class="ygrid crisp" transform="translate(0,272.2)" d="M165.50000000000009,0h379.9999999999998" style="stroke: rgb(255, 255, 255); stroke-opacity: 1; stroke-width: 1px;"/><path class="ygrid crisp" transform="translate(0,196.6)" d="M165.50000000000009,0h379.9999999999998" style="stroke: rgb(255, 255, 255); stroke-opacity: 1; stroke-width: 1px;"/><path class="ygrid crisp" transform="translate(0,121)" d="M165.50000000000009,0h379.9999999999998" style="stroke: rgb(255, 255, 255); stroke-opacity: 1; stroke-width: 1px;"/></g></g><g class="zerolinelayer"><path class="xzl zl crisp" transform="translate(166.50000000000009,0)" d="M0,100v420" style="stroke: rgb(255, 255, 255); stroke-opacity: 1; stroke-width: 2px;"/><path class="yzl zl crisp" transform="translate(0,499)" d="M165.50000000000009,0h379.9999999999998" style="stroke: rgb(255, 255, 255); stroke-opacity: 1; stroke-width: 2px;"/></g><path class="xlines-below"/><path class="ylines-below"/><g class="overlines-below"/><g class="xaxislayer-below"/><g class="yaxislayer-below"/><g class="overaxes-below"/><g class="plot" transform="translate(165.50000000000009,100)" clip-path="url(#clip38ed76xyplot)"><g class="scatterlayer mlayer"><g class="trace scatter trace702556" style="stroke-miterlimit: 2; opacity: 1;"><g class="fills"/><g class="errorbars"/><g class="lines"><path class="js-line" d="M1,399L1.72,351.53L1.86,351.53L2.43,329.13L3.01,329.13L3.58,308.98L3.87,308.98L4.58,267.33L4.73,267.33L5.3,250.31L6.02,250.31L6.74,234.18L6.88,234.18L7.6,203.73L8.03,203.73L8.74,182.68L9.03,182.68L9.75,157.15L9.89,157.15L10.32,149.99L10.89,149.99L11.61,125.8L12.19,125.8L12.9,117.29L13.05,117.29L13.76,110.13L13.91,110.13L14.62,103.41L14.91,103.41L15.05,94.45L15.77,94.45L16.49,89.97L17.06,89.97L17.63,76.98L18.64,76.98L18.64,68.92L19.5,68.92L19.79,60.41L20.79,60.41L20.79,59.07L21.36,59.07L22.8,59.07L22.8,53.25L24.23,53.25L24.23,50.56L25.23,50.56L25.23,49.66L25.81,49.66L26.09,49.66L26.24,44.74L27.1,44.74L27.53,41.15L27.96,41.15L28.1,32.2L29.11,32.2L29.11,31.75L30.4,31.75L30.4,30.41L32.83,30.41L32.98,27.72L33.98,27.72L33.98,26.82L37.42,26.82L43.73,26.82L43.73,23.24L45.74,23.24L45.74,21L379,21" style="vector-effect: non-scaling-stroke; fill: none; stroke: rgb(99, 110, 250); stroke-opacity: 1; stroke-width: 2px; opacity: 1;"/></g><g class="points"/><g class="text"/></g><g class="trace scatter trace0c15d6" style="stroke-miterlimit: 2; opacity: 1;"><g class="fills"/><g class="errorbars"/><g class="lines"><path class="js-line" d="M1,399L1.73,148.12L2.91,148.12L3.2,116.34L3.93,116.34L4.67,102.12L4.82,102.12L6.87,101.7L6.87,101.28L7.6,101.28L7.6,100.45L8.04,100.45L8.04,98.36L8.78,98.36L8.78,97.1L9.66,96.68L10.39,96.68L10.68,90.83L11.57,90.83L11.57,87.07L12.01,87.07L12.89,87.07L13.47,81.21L13.91,81.21L13.91,78.29L15.09,78.29L15.97,78.29L15.97,77.03L16.7,77.03L16.7,74.52L18.32,74.52L18.32,72.43L19.93,72.43L19.93,71.18L20.37,71.18L20.37,70.34L23.6,69.92L23.6,69.09L24.18,69.09L24.18,67.83L24.92,67.83L24.92,66.16L25.8,63.65L27.56,63.65L28,61.56L28.59,61.56L29.03,60.31L30.2,60.31L30.79,60.31L30.79,59.47L31.52,58.21L32.55,58.21L32.55,57.8L33.72,57.8L33.72,55.29L34.16,55.29L35.34,55.29L35.92,52.78L37.24,52.78L37.24,52.36L37.54,52.36L38.12,52.36L39.74,51.94L39.74,51.52L43.26,51.11L43.26,49.85L43.99,49.85L43.99,48.6L46.49,48.18L46.49,47.76L49.28,47.34L49.28,46.92L51.92,46.51L51.92,46.09L53.24,46.09L53.24,44.83L53.53,44.83L53.53,43.58L60.14,43.16L60.14,42.33L63.36,41.91L63.36,41.49L64.1,41.07L64.39,41.07L68.79,40.65L68.79,40.23L70.11,40.23L70.11,39.4L72.46,38.98L72.46,37.73L74.66,37.31L74.66,36.89L75.4,36.89L75.4,35.22L75.69,35.22L75.69,34.38L80.09,33.96L80.09,33.54L84.2,33.13L84.2,32.71L90.36,32.29L90.36,31.45L94.62,31.45L94.62,30.62L97.99,30.2L97.99,29.36L102.25,28.94L102.25,28.53L102.69,28.53L102.69,27.69L103.57,27.69L103.57,26.44L106.21,26.02L106.21,25.6L108.71,25.18L108.71,24.76L114.28,24.35L114.28,23.93L117.22,23.51L117.22,23.09L138.79,22.67L138.79,21.42L379,21" style="vector-effect: non-scaling-stroke; fill: none; stroke: rgb(239, 85, 59); stroke-opacity: 1; stroke-width: 2px; opacity: 1;"/></g><g class="points"/><g class="text"/></g><g class="trace scatter trace15910b" style="stroke-miterlimit: 2; opacity: 1;"><g class="fills"/><g class="errorbars"/><g class="lines"><path class="js-line" d="M1,399L1.58,21L2.3,21L379,21" style="vector-effect: non-scaling-stroke; fill: none; stroke: rgb(0, 204, 150); stroke-opacity: 1; stroke-width: 2px; opacity: 1;"/></g><g class="points"/><g class="text"/></g><g class="trace scatter trace4bd3af" style="stroke-miterlimit: 2; opacity: 1;"><g class="fills"/><g class="errorbars"/><g class="lines"><path class="js-line" d="M1,399L1,21L1.29,21L2.59,21L379,21" style="vector-effect: non-scaling-stroke; fill: none; stroke: rgb(171, 99, 250); stroke-opacity: 1; stroke-width: 2px; opacity: 1;"/></g><g class="points"/><g class="text"/></g></g></g><g class="overplot"/><path class="xlines-above crisp" d="M0,0" style="fill: none;"/><path class="ylines-above crisp" d="M0,0" style="fill: none;"/><g class="overlines-above"/><g class="xaxislayer-above"><g class="xtick"><text text-anchor="middle" x="0" y="533" transform="translate(166.50000000000009,0)" style="font-family: 'Open Sans', verdana, arial, sans-serif; font-size: 12px; fill: rgb(42, 63, 95); fill-opacity: 1; white-space: pre; opacity: 1;">0</text></g><g class="xtick"><text text-anchor="middle" x="0" y="533" style="font-family: 'Open Sans', verdana, arial, sans-serif; font-size: 12px; fill: rgb(42, 63, 95); fill-opacity: 1; white-space: pre; opacity: 1;" transform="translate(242.10000000000008,0)">0.2</text></g><g class="xtick"><text text-anchor="middle" x="0" y="533" style="font-family: 'Open Sans', verdana, arial, sans-serif; font-size: 12px; fill: rgb(42, 63, 95); fill-opacity: 1; white-space: pre; opacity: 1;" transform="translate(317.70000000000005,0)">0.4</text></g><g class="xtick"><text text-anchor="middle" x="0" y="533" style="font-family: 'Open Sans', verdana, arial, sans-serif; font-size: 12px; fill: rgb(42, 63, 95); fill-opacity: 1; white-space: pre; opacity: 1;" transform="translate(393.30000000000007,0)">0.6</text></g><g class="xtick"><text text-anchor="middle" x="0" y="533" style="font-family: 'Open Sans', verdana, arial, sans-serif; font-size: 12px; fill: rgb(42, 63, 95); fill-opacity: 1; white-space: pre; opacity: 1;" transform="translate(468.9000000000001,0)">0.8</text></g><g class="xtick"><text text-anchor="middle" x="0" y="533" style="font-family: 'Open Sans', verdana, arial, sans-serif; font-size: 12px; fill: rgb(42, 63, 95); fill-opacity: 1; white-space: pre; opacity: 1;" transform="translate(544.5000000000001,0)">1</text></g></g><g class="yaxislayer-above"><g class="ytick"><text text-anchor="end" x="164.50000000000009" y="4.199999999999999" transform="translate(0,499)" style="font-family: 'Open Sans', verdana, arial, sans-serif; font-size: 12px; fill: rgb(42, 63, 95); fill-opacity: 1; white-space: pre; opacity: 1;">0</text></g><g class="ytick"><text text-anchor="end" x="164.50000000000009" y="4.199999999999999" style="font-family: 'Open Sans', verdana, arial, sans-serif; font-size: 12px; fill: rgb(42, 63, 95); fill-opacity: 1; white-space: pre; opacity: 1;" transform="translate(0,423.4)">0.2</text></g><g class="ytick"><text text-anchor="end" x="164.50000000000009" y="4.199999999999999" style="font-family: 'Open Sans', verdana, arial, sans-serif; font-size: 12px; fill: rgb(42, 63, 95); fill-opacity: 1; white-space: pre; opacity: 1;" transform="translate(0,347.8)">0.4</text></g><g class="ytick"><text text-anchor="end" x="164.50000000000009" y="4.199999999999999" style="font-family: 'Open Sans', verdana, arial, sans-serif; font-size: 12px; fill: rgb(42, 63, 95); fill-opacity: 1; white-space: pre; opacity: 1;" transform="translate(0,272.2)">0.6</text></g><g class="ytick"><text text-anchor="end" x="164.50000000000009" y="4.199999999999999" style="font-family: 'Open Sans', verdana, arial, sans-serif; font-size: 12px; fill: rgb(42, 63, 95); fill-opacity: 1; white-space: pre; opacity: 1;" transform="translate(0,196.6)">0.8</text></g><g class="ytick"><text text-anchor="end" x="164.50000000000009" y="4.199999999999999" style="font-family: 'Open Sans', verdana, arial, sans-serif; font-size: 12px; fill: rgb(42, 63, 95); fill-opacity: 1; white-space: pre; opacity: 1;" transform="translate(0,121)">1</text></g></g><g class="overaxes-above"/></g></g><g class="polarlayer"/><g class="smithlayer"/><g class="ternarylayer"/><g class="geolayer"/><g class="funnelarealayer"/><g class="pielayer"/><g class="iciclelayer"/><g class="treemaplayer"/><g class="sunburstlayer"/><g class="glimages"/><defs id="topdefs-38ed76"><g class="clips"/><clipPath id="legend38ed76"><rect width="146" height="86" x="0" y="0"/></clipPath></defs><g class="layer-above"><g class="imagelayer"/><g class="shapelayer"><path data-index="0" fill-rule="evenodd" d="M166.50000000000009,499L544.5000000000001,121" clip-path="url(#clip38ed76xy)" style="opacity: 1; stroke: rgb(42, 63, 95); stroke-opacity: 1; fill: rgb(0, 0, 0); fill-opacity: 0; stroke-dasharray: 9px, 9px; stroke-width: 2px;"/></g></g><g class="infolayer"><g class="legend" pointer-events="all" transform="translate(642.02,100)"><rect class="bg" shape-rendering="crispEdges" style="stroke: rgb(68, 68, 68); stroke-opacity: 1; fill: rgb(255, 255, 255); fill-opacity: 1; stroke-width: 0px;" width="146" height="86" x="0" y="0"/><g class="scrollbox" transform="" clip-path="url(#legend38ed76)"><g class="groups"><g class="traces" transform="translate(0,14.5)" style="opacity: 1;"><text class="legendtext" text-anchor="start" x="40" y="4.680000000000001" style="font-family: 'Open Sans', verdana, arial, sans-serif; font-size: 12px; fill: rgb(42, 63, 95); fill-opacity: 1; white-space: pre;">0 (AUC=0.9766)</text><g class="layers" style="opacity: 1;"><g class="legendfill"/><g class="legendlines"><path class="js-line" d="M5,0h30" style="fill: none; stroke: rgb(99, 110, 250); stroke-opacity: 1; stroke-width: 2px;"/></g><g class="legendsymbols"><g class="legendpoints"/></g></g><rect class="legendtoggle" x="0" y="-9.5" width="140.390625" height="19" style="fill: rgb(0, 0, 0); fill-opacity: 0;"/></g><g class="traces" transform="translate(0,33.5)" style="opacity: 1;"><text class="legendtext" text-anchor="start" x="40" y="4.680000000000001" style="font-family: 'Open Sans', verdana, arial, sans-serif; font-size: 12px; fill: rgb(42, 63, 95); fill-opacity: 1; white-space: pre;">1 (AUC=0.9759)</text><g class="layers" style="opacity: 1;"><g class="legendfill"/><g class="legendlines"><path class="js-line" d="M5,0h30" style="fill: none; stroke: rgb(239, 85, 59); stroke-opacity: 1; stroke-width: 2px;"/></g><g class="legendsymbols"><g class="legendpoints"/></g></g><rect class="legendtoggle" x="0" y="-9.5" width="140.390625" height="19" style="fill: rgb(0, 0, 0); fill-opacity: 0;"/></g><g class="traces" transform="translate(0,52.5)" style="opacity: 1;"><text class="legendtext" text-anchor="start" x="40" y="4.680000000000001" style="font-family: 'Open Sans', verdana, arial, sans-serif; font-size: 12px; fill: rgb(42, 63, 95); fill-opacity: 1; white-space: pre;">2 (AUC=0.9997)</text><g class="layers" style="opacity: 1;"><g class="legendfill"/><g class="legendlines"><path class="js-line" d="M5,0h30" style="fill: none; stroke: rgb(0, 204, 150); stroke-opacity: 1; stroke-width: 2px;"/></g><g class="legendsymbols"><g class="legendpoints"/></g></g><rect class="legendtoggle" x="0" y="-9.5" width="140.390625" height="19" style="fill: rgb(0, 0, 0); fill-opacity: 0;"/></g><g class="traces" transform="translate(0,71.5)" style="opacity: 1;"><text class="legendtext" text-anchor="start" x="40" y="4.680000000000001" style="font-family: 'Open Sans', verdana, arial, sans-serif; font-size: 12px; fill: rgb(42, 63, 95); fill-opacity: 1; white-space: pre;">3 (AUC=1.0000)</text><g class="layers" style="opacity: 1;"><g class="legendfill"/><g class="legendlines"><path class="js-line" d="M5,0h30" style="fill: none; stroke: rgb(171, 99, 250); stroke-opacity: 1; stroke-width: 2px;"/></g><g class="legendsymbols"><g class="legendpoints"/></g></g><rect class="legendtoggle" x="0" y="-9.5" width="140.390625" height="19" style="fill: rgb(0, 0, 0); fill-opacity: 0;"/></g></g></g><rect class="scrollbar" rx="20" ry="3" width="0" height="0" style="fill: rgb(128, 139, 164); fill-opacity: 1;" x="0" y="0"/></g><g class="g-gtitle"/><g class="g-xtitle"><text class="xtitle" x="355.5" y="560.8" text-anchor="middle" style="font-family: 'Open Sans', verdana, arial, sans-serif; font-size: 14px; fill: rgb(42, 63, 95); opacity: 1; font-weight: normal; white-space: pre;">False Positive Rate</text></g><g class="g-ytitle"><text class="ytitle" transform="rotate(-90,120.075,310)" x="120.075" y="310" text-anchor="middle" style="font-family: 'Open Sans', verdana, arial, sans-serif; font-size: 14px; fill: rgb(42, 63, 95); opacity: 1; font-weight: normal; white-space: pre;">True Positive Rate</text></g></g></svg>